<?xml version="1.0" encoding="UTF-8"?>
<svg id="Capa_1" data-name="Capa 1" xmlns="http://www.w3.org/2000/svg" xmlns:xlink="http://www.w3.org/1999/xlink" viewBox="0 0 1045.12 1045.12">
  <defs>
    <style>
      .cls-1 {
        fill: url(#Degradado_sin_nombre_31-2);
      }

      .cls-2 {
        fill: url(#Degradado_sin_nombre_31-3);
      }

      .cls-3 {
        fill: #fff;
      }

      .cls-4 {
        fill: url(#Degradado_sin_nombre_31);
      }
    </style>
    <linearGradient id="Degradado_sin_nombre_31" data-name="Degradado sin nombre 31" x1="522.56" y1="1045.12" x2="522.56" y2="0" gradientUnits="userSpaceOnUse">
      <stop offset="0" stop-color="#000"/>
      <stop offset="1" stop-color="#0c3352"/>
    </linearGradient>
    <linearGradient id="Degradado_sin_nombre_31-2" data-name="Degradado sin nombre 31" x1="522.94" y1="865.33" x2="522.94" y2="460.8" xlink:href="#Degradado_sin_nombre_31"/>
    <linearGradient id="Degradado_sin_nombre_31-3" data-name="Degradado sin nombre 31" x1="519.52" y1="709.16" x2="519.52" y2="616.96" xlink:href="#Degradado_sin_nombre_31"/>
  </defs>
  <rect class="cls-4" width="1045.12" height="1045.12" rx="139.36" ry="139.36"/>
  <g>
    <path class="cls-3" d="M763.88,395.91v-79.82c0-35.33-9-70.34-26.02-101.25-17.53-31.84-41.94-57.56-72.55-76.46-39.05-24.11-87.07-36.34-142.75-36.34s-103.7,12.23-142.75,36.34c-30.61,18.9-55.02,44.62-72.55,76.46-17.02,30.91-26.02,65.92-26.02,101.25v79.82c-43.68,19.71-73.68,60.03-73.68,106.48v321.34c0,65.8,60.22,119.33,134.24,119.33h361.51c74.02,0,134.24-53.53,134.24-119.33v-321.34c0-46.44-30-86.77-73.68-106.48ZM377.49,245.41c26.99-49,75.8-73.85,145.07-73.85s118.08,24.85,145.07,73.85c11.81,21.45,18.06,45.89,18.06,70.69v66.97h-326.25v-66.97c0-24.8,6.24-49.24,18.06-70.69Z"/>
    <g>
      <path class="cls-1" d="M714.02,471.98c-14.91-14.91-39.09-14.91-54,0-.85.85-1.64,1.72-2.39,2.62-18.87-1.02-41.81,4-67.74,15.1-21.58,9.24-44.24,22.22-66.96,38.19-22.72-15.98-45.38-28.95-66.96-38.19-47.74-20.44-85.41-20.32-106.06.33-20.65,20.65-20.77,58.32-.33,106.06,9.24,21.58,22.22,44.24,38.19,66.96-15.98,22.72-28.95,45.38-38.19,66.96-11.1,25.92-16.12,48.87-15.1,67.74-.9.75-1.78,1.54-2.62,2.38-14.91,14.91-14.91,39.09,0,54,14.91,14.91,39.09,14.91,54,0,.85-.85,1.64-1.72,2.39-2.63,1.59.09,3.2.14,4.84.14,17.9,0,39.15-5.08,62.89-15.24,21.58-9.24,44.24-22.22,66.96-38.19,22.72,15.98,45.38,28.95,66.96,38.19,23.74,10.16,44.99,15.24,62.89,15.24s32.79-5.19,43.17-15.58c20.65-20.66,20.77-58.32.33-106.06-9.24-21.58-22.22-44.24-38.19-66.96,15.98-22.72,28.95-45.38,38.19-66.96,11.1-25.92,16.12-48.87,15.1-67.74.9-.75,1.78-1.54,2.62-2.38,14.91-14.91,14.91-39.09,0-54ZM366.53,588.84c-17.02-39.76-18.33-71.02-3.58-85.76,6.81-6.81,17.13-10.19,30.19-10.19,15.23,0,34.17,4.61,55.58,13.77,18.84,8.07,38.59,19.16,58.5,32.76-19.49,14.88-38.86,31.84-57.48,50.45-18.61,18.61-35.58,37.98-50.45,57.48-13.6-19.92-24.69-39.67-32.76-58.5ZM522.94,550.64c20.34,15.16,40.65,32.76,60.15,52.27,19.5,19.5,37.11,39.81,52.27,60.15-15.16,20.34-32.76,40.65-52.27,60.15-19.5,19.5-39.81,37.11-60.15,52.27-20.34-15.16-40.65-32.76-60.15-52.27-19.5-19.5-37.11-39.81-52.27-60.15,15.16-20.34,32.76-40.65,52.27-60.15,19.5-19.5,39.81-37.11,60.15-52.27ZM448.72,819.47c-19.84,8.49-37.56,13.07-52.17,13.7,1.85-11.67-1.71-24.03-10.7-33.02-8.99-8.99-21.35-12.55-33.02-10.7.63-14.61,5.2-32.33,13.7-52.17,8.07-18.84,19.16-38.59,32.76-58.5,14.88,19.49,31.84,38.86,50.45,57.48,18.61,18.61,37.98,35.58,57.48,50.45-19.92,13.6-39.67,24.69-58.5,32.76ZM679.34,737.28c17.02,39.76,18.33,71.02,3.58,85.76-14.75,14.75-46.01,13.44-85.76-3.58-18.84-8.07-38.59-19.16-58.5-32.76,19.49-14.88,38.86-31.84,57.48-50.45,18.61-18.61,35.58-37.98,50.45-57.48,13.6,19.92,24.69,39.67,32.76,58.5ZM679.34,588.84c-8.07,18.84-19.16,38.59-32.76,58.5-14.88-19.49-31.84-38.86-50.45-57.48-18.61-18.61-37.98-35.58-57.48-50.45,19.92-13.6,39.67-24.69,58.5-32.76,19.84-8.49,37.56-13.07,52.17-13.7-1.85,11.67,1.71,24.03,10.7,33.02s21.35,12.55,33.02,10.7c-.63,14.61-5.21,32.33-13.7,52.17Z"/>
      <circle class="cls-2" cx="519.52" cy="663.06" r="46.1"/>
    </g>
  </g>
</svg>